{
  "accessors": [
    {
      "bufferView": 2,
      "componentType": 5126,
      "count": 354,
      "max": [
        15.004815101623535,
        4.019784450531006,
        -0.11992458999156952
      ],
      "min": [
        -17.935558319091797,
        -6.774815082550049,
        -1.737443447113037
      ],
      "type": "VEC3"
    },
    {
      "bufferView": 2,
      "byteOffset": 4248,
      "componentType": 5126,
      "count": 354,
      "max": [
        1.0,
        1.0,
        1.0
      ],
      "min": [
        -1.0,
        -1.0,
        -1.0
      ],
      "type": "VEC3"
    },
    {
      "bufferView": 1,
      "componentType": 5126,
      "count": 354,
      "max": [
        1.0037662982940674,
        0.7711517810821533
      ],
      "min": [
        0.006487235426902771,
        0.0007272204384207726
      ],
      "type": "VEC2"
    },
    {
      "bufferView": 0,
      "componentType": 5125,
      "count": 636,
      "type": "SCALAR"
    }
  ],
  "asset": {
    "extras": {
      "author": "Wersaus33 (https://sketchfab.com/wersaus33)",
      "license": "CC-BY-4.0 (http://creativecommons.org/licenses/by/4.0/)",
      "source": "https://sketchfab.com/3d-models/famas-low-poly-ps1-ba67eee132b24364bff76213f2761950",
      "title": "FAMAS - Low Poly PS1"
    },
    "generator": "Sketchfab-15.8.0",
    "version": "2.0"
  },
  "bufferViews": [
    {
      "buffer": 0,
      "byteLength": 2544,
      "name": "floatBufferViews",
      "target": 34963
    },
    {
      "buffer": 0,
      "byteLength": 2832,
      "byteOffset": 2544,
      "byteStride": 8,
      "name": "floatBufferViews",
      "target": 34962
    },
    {
      "buffer": 0,
      "byteLength": 8496,
      "byteOffset": 5376,
      "byteStride": 12,
      "name": "floatBufferViews",
      "target": 34962
    }
  ],
  "buffers": [
    {
      "byteLength": 13872,
      "uri": "scene.bin"
    }
  ],
  "images": [
    {
      "uri": "textures/Famas_baseColor.png"
    }
  ],
  "materials": [
    {
      "doubleSided": true,
      "name": "Famas",
      "pbrMetallicRoughness": {
        "baseColorTexture": {
          "index": 0
        },
        "roughnessFactor": 0.678475210591118
      }
    }
  ],
  "meshes": [
    {
      "name": "Plane.001_Famas_0",
      "primitives": [
        {
          "attributes": {
            "NORMAL": 1,
            "POSITION": 0,
            "TEXCOORD_0": 2
          },
          "indices": 3,
          "material": 0,
          "mode": 4
        }
      ]
    }
  ],
  "nodes": [
    {
      "children": [
        1
      ],
      "matrix": [
        1.0,
        0.0,
        0.0,
        0.0,
        0.0,
        2.220446049250313e-16,
        -1.0,
        0.0,
        0.0,
        1.0,
        2.220446049250313e-16,
        0.0,
        0.0,
        0.0,
        0.0,
        1.0
      ],
      "name": "Sketchfab_model"
    },
    {
      "children": [
        2
      ],
      "matrix": [
        0.009999999776482582,
        0.0,
        0.0,
        0.0,
        0.0,
        0.0,
        0.009999999776482582,
        0.0,
        0.0,
        -0.009999999776482582,
        0.0,
        0.0,
        0.0,
        0.0,
        0.0,
        1.0
      ],
      "name": "205b4de489cd4c2daa27fad613c1cddf.fbx"
    },
    {
      "children": [
        3
      ],
      "name": "RootNode"
    },
    {
      "children": [
        4
      ],
      "matrix": [
        17.5598087310791,
        0.0,
        0.0,
        0.0,
        0.0,
        17.559808731079084,
        7.675636176850493e-07,
        0.0,
        0.0,
        -7.675636176850493e-07,
        17.559808731079084,
        0.0,
        28.352081298828125,
        123.64656829833984,
        16.33150863647461,
        1.0
      ],
      "name": "Plane.001"
    },
    {
      "mesh": 0,
      "name": "Plane.001_Famas_0"
    }
  ],
  "samplers": [
    {
      "magFilter": 9728,
      "minFilter": 9728,
      "wrapS": 10497,
      "wrapT": 10497
    }
  ],
  "scene": 0,
  "scenes": [
    {
      "name": "Sketchfab_Scene",
      "nodes": [
        0
      ]
    }
  ],
  "textures": [
    {
      "sampler": 0,
      "source": 0
    }
  ]
}
